<?xml version="1.0" encoding="UTF-8"?>
<svg xmlns="http://www.w3.org/2000/svg" id="Layer_1" data-name="Layer 1" viewBox="0 0 1124 720">
  <defs>
    <style>
      .cls-1 {
        fill: #fff;
      }
    </style>
  </defs>
  <rect y="0" width="1124" height="720"/>
  <g>
    <path class="cls-1" d="M161.96,248.75c-7.71-5.1-16.34-7.66-25.9-7.66s-17.59,2.56-25.4,7.66c-7.82,5.1-13.36,13.08-16.61,23.94l-59.61,205.85h36.81l53.75-195.42c1.95-6.3,5.75-9.45,11.4-9.45s9.45,3.15,11.4,9.45l53.1,195.42h36.81l-59.29-205.85c-3.26-10.86-8.74-18.83-16.45-23.94Z"/>
    <path class="cls-1" d="M375.64,241.09v91.73c-4.99-5.28-10.79-9.75-17.43-13.38-10.51-5.75-22.1-8.67-34.67-8.67-16.02,0-30.43,3.63-43.15,10.74-12.77,7.16-22.66,17.15-29.82,29.82-7.16,12.72-10.74,27.23-10.74,43.48,0,15.26,3.77,29.21,11.45,41.88,7.59,12.72,17.71,22.9,30.58,30.67,12.81,7.63,27.23,11.54,43.3,11.54s30.95-3.72,43.86-11.12c12.91-7.35,23.08-17.43,30.58-30.15,7.49-12.67,11.31-26.95,11.31-42.82v-153.72h-35.24ZM371.26,434.25c0,3.44-2.87,6.31-6.36,6.31h-79.15c-3.49,0-6.31-2.87-6.31-6.31v-79.19c0-3.44,2.78-6.22,6.22-6.22h79.24c3.49,0,6.36,2.83,6.36,6.31v79.1Z"/>
    <path class="cls-1" d="M523.21,443.04c0,.65-.27,1.19-.81,1.63-.54.43-1.25.65-2.12.65s-1.58-.21-2.12-.65c-.54-.44-.81-.98-.81-1.63l-45.93-128.34h-37.46l50.82,137.79c3.26,8.69,7.98,15.26,14.17,19.71,6.19,4.45,13.3,6.68,21.34,6.68s15.31-2.23,21.17-6.68c5.86-4.45,10.42-11.02,13.68-19.71l51.47-137.79h-37.46l-45.93,128.34Z"/>
    <path class="cls-1" d="M769.87,352.37c-7.49-12.77-17.67-22.9-30.53-30.48-12.81-7.58-27.37-11.4-43.63-11.4s-30.53,3.82-43.44,11.4c-13,7.58-23.27,17.71-30.81,30.29-7.58,12.58-11.4,26.62-11.4,42.02s3.82,29.49,11.4,42.31c7.54,12.81,17.81,22.99,30.81,30.67,12.91,7.59,27.37,11.35,43.44,11.35s30.58-3.77,43.48-11.35c12.91-7.68,23.18-17.86,30.67-30.67,7.49-12.81,11.17-26.85,11.17-42.31s-3.67-29.16-11.17-41.83ZM741.46,436.37c0,3.44-2.87,6.31-6.36,6.31h-8.2c-.28.05-.52.05-.8.05h-61.06c-.28,0-.52,0-.8-.05h-8.29c-3.49,0-6.31-2.87-6.31-6.31v-79.19c0-3.44,2.78-6.22,6.22-6.22h8.39c.28-.05.52-.05.8-.05h61.06c.28,0,.52,0,.8.05h8.2c3.49,0,6.36,2.83,6.36,6.31v79.1Z"/>
    <path class="cls-1" d="M1078.31,351.52c-7.49-12.58-17.67-22.57-30.58-30.01-12.96-7.3-27.56-11.02-43.86-11.02s-30.48,3.82-43.34,11.4c-12.81,7.58-22.99,17.71-30.58,30.48-7.63,12.67-11.45,26.62-11.45,41.83s3.53,29.49,10.41,42.31c6.97,12.81,16.49,22.99,28.55,30.67,12.06,7.59,25.82,11.35,41.22,11.35,13.9,0,26.01-3.11,36.28-9.47,8.86-5.32,15.83-12.39,21.34-20.92v30.39h33.26v-84.33c0-15.83-3.77-30.15-11.26-42.68ZM1049.95,434.06c0,3.44-2.87,6.31-6.36,6.31h-79.15c-3.49,0-6.31-2.87-6.31-6.31v-79.19c0-3.44,2.78-6.22,6.22-6.22h79.24c3.49,0,6.36,2.83,6.36,6.31v79.1Z"/>
    <path class="cls-1" d="M890.47,312.89c-4.85-.94-10.03-1.46-15.45-1.46-.85,0-1.65,0-2.5.05v-.05h-22.14c-22.56,0-40.84,18.29-40.84,40.84v126.26l35.19.38-.39-122.17c-.02-6.51,5.22-11.81,11.73-11.87l22.2-.18c4.33,0,8.76.52,13.19,1.6,4.48,1.08,8.62,2.83,12.53,5.23v-34.53c-4.1-1.74-8.62-3.11-13.52-4.1Z"/>
  </g>
</svg>
